<svg xmlns="http://www.w3.org/2000/svg" width="64" height="64" viewBox="0 0 64 64" fill="none">
  <rect width="64" height="64" rx="16" fill="#060714"/>
  <path d="M32 8 49 14v14c0 12.7-7.2 22.5-17 27.8C22.2 50.5 15 40.7 15 28V14l17-6Z" fill="#07172e" stroke="#00f0ff" stroke-width="4" stroke-linejoin="round"/>
  <path d="M32 15.5 42 19v9.2c0 7.2-3.9 12.9-10 16.8-6.1-3.9-10-9.6-10-16.8V19l10-3.5Z" fill="url(#g)"/>
  <path d="M25.5 31.5 30 36l9-10.5" stroke="#e8fbff" stroke-width="4" stroke-linecap="round" stroke-linejoin="round"/>
  <path d="M32 8 49 14v14c0 12.7-7.2 22.5-17 27.8C22.2 50.5 15 40.7 15 28V14l17-6Z" stroke="#00f0ff" stroke-width="1.3" stroke-linejoin="round" filter="url(#glow)"/>
  <defs>
    <linearGradient id="g" x1="21" y1="16" x2="45" y2="43" gradientUnits="userSpaceOnUse">
      <stop stop-color="#00f0ff"/>
      <stop offset="1" stop-color="#a855f7"/>
    </linearGradient>
    <filter id="glow" x="4" y="-3" width="56" height="70" color-interpolation-filters="sRGB" filterUnits="userSpaceOnUse">
      <feGaussianBlur stdDeviation="3"/>
    </filter>
  </defs>
</svg>
